<svg width="40" height="40" viewBox="0 0 40 40" fill="none" xmlns="http://www.w3.org/2000/svg">
<circle cx="20" cy="20" r="20" fill="#303030"/>
<path d="M19.4997 17.2456C17.7078 17.2456 16.2454 18.708 16.2454 20.5C16.2454 22.292 17.7078 23.7544 19.4997 23.7544C21.2917 23.7544 22.7541 22.292 22.7541 20.5C22.7541 18.708 21.2917 17.2456 19.4997 17.2456ZM29.2605 20.5C29.2605 19.1523 29.2727 17.8169 29.197 16.4717C29.1213 14.9092 28.7649 13.5225 27.6223 12.3799C26.4773 11.2349 25.093 10.8809 23.5305 10.8052C22.1829 10.7295 20.8474 10.7417 19.5022 10.7417C18.1545 10.7417 16.8191 10.7295 15.4739 10.8052C13.9114 10.8809 12.5247 11.2373 11.3821 12.3799C10.2371 13.5249 9.88305 14.9092 9.80737 16.4717C9.73168 17.8193 9.74389 19.1548 9.74389 20.5C9.74389 21.8452 9.73168 23.1831 9.80737 24.5283C9.88305 26.0908 10.2395 27.4775 11.3821 28.6201C12.5271 29.7651 13.9114 30.1191 15.4739 30.1948C16.8215 30.2705 18.157 30.2583 19.5022 30.2583C20.8498 30.2583 22.1853 30.2705 23.5305 30.1948C25.093 30.1191 26.4797 29.7627 27.6223 28.6201C28.7673 27.4751 29.1213 26.0908 29.197 24.5283C29.2751 23.1831 29.2605 21.8476 29.2605 20.5ZM19.4997 25.5073C16.7288 25.5073 14.4924 23.271 14.4924 20.5C14.4924 17.729 16.7288 15.4927 19.4997 15.4927C22.2707 15.4927 24.5071 17.729 24.5071 20.5C24.5071 23.271 22.2707 25.5073 19.4997 25.5073ZM24.7122 16.457C24.0652 16.457 23.5427 15.9346 23.5427 15.2876C23.5427 14.6406 24.0652 14.1182 24.7122 14.1182C25.3591 14.1182 25.8816 14.6406 25.8816 15.2876C25.8818 15.4412 25.8517 15.5934 25.793 15.7353C25.7343 15.8773 25.6481 16.0063 25.5395 16.1149C25.4309 16.2236 25.3019 16.3097 25.1599 16.3684C25.0179 16.4271 24.8658 16.4572 24.7122 16.457Z" fill="#FFF4EB"/>
</svg>
