<svg width="83" height="43" viewBox="0 0 83 43" fill="none" xmlns="http://www.w3.org/2000/svg">
<path d="M36.7439 4.03125C36.7439 1.88125 38.6252 0 40.7752 0C42.9252 0 44.8064 1.88125 44.8064 4.03125C44.8064 6.18124 42.9252 8.33124 40.7752 8.33124C38.6252 8.33124 36.7439 6.18124 36.7439 4.03125Z" fill="#CA9277"/>
<path fill-rule="evenodd" clip-rule="evenodd" d="M37.0145 43C21.6939 42.1937 11.7503 32.5188 14.4395 15.05C16.8564 14.7812 20.8877 15.0501 22.5002 15.8563C23.3064 11.2875 24.1127 8.86874 25.7252 4.56875C32.4439 6.98749 36.4752 9.67499 40.7752 13.975C44.8064 9.67499 51.7939 5.64374 55.8251 4.56875C57.5506 8.96359 58.2439 11.5562 59.0501 15.8562C60.9314 15.05 64.4251 14.7812 67.1126 15.05C69.8001 32.25 59.8564 42.7312 44.5377 43C52.6925 35.1538 55.7937 30.3701 56.9002 20.6937L59.3189 19.8875C58.4619 29.3654 56.0544 33.8748 50.9877 39.775C61.2218 36.8187 65.9828 29.5625 64.9626 17.2C58.366 17.8205 54.9018 19.2087 49.1064 23.1125L48.0314 20.9625C51.0369 18.7411 52.8652 17.7473 56.6314 16.3937C56.2019 12.9152 55.7375 10.9715 54.2127 7.52499C45.1035 12.2698 41.1892 15.6947 36.7439 23.3812C38.5622 24.8379 39.4026 25.7419 40.7752 27.4125C42.3175 25.5822 43.1881 24.6774 44.8064 23.3812C43.7549 21.4819 43.1158 20.4694 41.8502 18.8125L43.4627 16.9312C46.8281 21.6747 48.2 24.4776 49.3752 29.8312C46.7966 34.1334 44.9612 36.2837 40.7752 39.5062C36.5633 36.1142 34.6867 33.9904 32.1752 29.8312C32.3864 28.1592 32.6011 27.2786 33.2502 25.8L35.1314 27.4125C34.8867 28.3932 34.8612 28.7481 34.8627 29.2937C36.5617 32.2572 37.8295 33.8544 40.7752 36.55C43.8567 33.7836 44.8649 32.2726 46.6877 29.2937C46.4955 27.899 46.3023 27.1284 45.6127 25.8C43.6112 27.7038 42.5796 28.9984 40.7752 31.4437C36.1059 25.4058 33.053 22.7288 26.5314 19.6187V16.9312C30.6866 18.5815 32.3198 19.6912 34.8627 21.7687C36.3017 19.1004 37.2851 17.7839 39.1627 15.5875C34.7546 11.6354 31.9064 9.67499 27.0689 7.52499C22.0096 21.4376 24.6502 31.4437 37.0145 43ZM22.5002 18.275C22.2682 27.3185 24.3624 31.8781 30.2939 39.5062C19.6469 36.0125 15.2439 29.2937 16.5877 17.2C18.985 17.3168 20.2992 17.5013 22.5002 18.275Z" fill="#CA9277"/>
<path d="M3.33 21.78C3.33 20.052 4.428 18.594 6.21 18.594C8.046 18.594 8.982 19.908 8.982 21.762V27H10.782V21.636C10.782 19.008 9.234 17.37 6.606 17.37C5.058 17.37 3.888 18.18 3.33 19.206L3.042 17.55H1.53V27H3.33V21.78ZM20.5148 27H21.9548V20.826C21.9548 18.504 20.1188 17.37 17.8148 17.37C15.3488 17.37 13.6928 18.468 13.6928 20.322V20.52H15.4568C15.4568 19.08 16.3928 18.378 17.8148 18.378C19.2548 18.378 20.1548 19.206 20.1548 20.664V21.51C19.6508 21.474 19.0028 21.456 18.3908 21.456C16.3388 21.456 15.2048 21.654 14.3048 22.32C13.6028 22.788 13.1888 23.49 13.1888 24.426C13.1888 26.316 14.6648 27.18 16.6808 27.18C18.3908 27.18 19.6688 26.46 20.1728 25.416L20.5148 27ZM15.0248 24.336C15.0248 23.814 15.2408 23.418 15.5828 23.13C16.2848 22.518 17.6708 22.446 19.1648 22.446C19.4888 22.446 19.9028 22.446 20.1548 22.464V23.202C20.1548 24.858 18.9488 26.082 17.2208 26.082C15.8888 26.082 15.0248 25.506 15.0248 24.336ZM26.7792 21.798C26.7792 20.124 27.5892 18.594 29.3532 18.594C31.0812 18.594 31.9092 19.908 31.9092 21.654V27H33.6732V21.438C33.6732 19.908 34.4832 18.594 36.1932 18.594C37.8312 18.594 38.8212 19.746 38.8212 21.456V27H40.6212V21.438C40.6212 18.99 39.0552 17.37 36.6612 17.37C35.0592 17.37 33.7452 18.144 33.2052 19.422C32.7552 18.414 31.7652 17.37 29.8212 17.37C28.2552 17.37 27.1932 18.18 26.7432 19.134L26.4912 17.55H24.9792V27H26.7792V21.798ZM50.3625 27H51.8025V20.826C51.8025 18.504 49.9665 17.37 47.6625 17.37C45.1965 17.37 43.5405 18.468 43.5405 20.322V20.52H45.3045C45.3045 19.08 46.2405 18.378 47.6625 18.378C49.1025 18.378 50.0025 19.206 50.0025 20.664V21.51C49.4985 21.474 48.8505 21.456 48.2385 21.456C46.1865 21.456 45.0525 21.654 44.1525 22.32C43.4505 22.788 43.0365 23.49 43.0365 24.426C43.0365 26.316 44.5125 27.18 46.5285 27.18C48.2385 27.18 49.5165 26.46 50.0205 25.416L50.3625 27ZM44.8725 24.336C44.8725 23.814 45.0885 23.418 45.4305 23.13C46.1325 22.518 47.5185 22.446 49.0125 22.446C49.3365 22.446 49.7505 22.446 50.0025 22.464V23.202C50.0025 24.858 48.7965 26.082 47.0685 26.082C45.7365 26.082 44.8725 25.506 44.8725 24.336ZM58.5709 26.19C57.0949 26.19 56.1409 25.362 56.1409 23.85H54.3589V24.066C54.3589 26.244 56.3029 27.18 58.5529 27.18C60.5869 27.18 62.6569 26.334 62.6569 24.282C62.6569 22.158 60.3169 21.888 58.8409 21.564C57.4009 21.24 56.2849 21.042 56.2849 19.926C56.2849 18.9 57.3469 18.342 58.3909 18.342C59.7409 18.342 60.7669 19.008 60.7669 20.34H62.5309V20.16C62.5309 18.234 60.5329 17.352 58.4089 17.352C56.5189 17.352 54.5209 18.252 54.5209 20.142C54.5209 21.96 56.2309 22.482 58.0669 22.86C59.2549 23.112 60.8389 23.292 60.8389 24.498C60.8389 25.704 59.7589 26.19 58.5709 26.19ZM70.2191 26.856V25.848C69.7511 25.974 69.1931 26.028 68.7791 26.028C67.5011 25.974 67.4831 25.272 67.4831 23.976V18.54H69.7871V17.55H67.4831V15.39L65.6831 15.822V17.55H64.4051V18.54H65.6831V24.408C65.6831 26.334 66.4391 27.162 68.3471 27.162C69.0131 27.162 69.7691 27.036 70.2191 26.856ZM81.186 23.868H79.368C79.368 25.38 78.288 26.172 76.776 26.172C74.832 26.172 73.842 24.606 73.734 22.698H81.276C81.312 22.374 81.312 22.176 81.312 21.906C81.312 19.062 79.53 17.37 76.686 17.37C73.77 17.37 71.88 19.386 71.88 22.302C71.88 25.308 73.77 27.18 76.776 27.18C79.044 27.18 81.186 26.136 81.186 23.868ZM76.686 18.378C78.63 18.378 79.53 19.764 79.53 21.708H73.752C73.896 19.872 74.832 18.378 76.686 18.378Z" fill="#303030"/>
</svg>
