<svg width="40" height="40" viewBox="0 0 40 40" fill="none" xmlns="http://www.w3.org/2000/svg">
<circle cx="20" cy="20" r="20" fill="#303030"/>
<path d="M32.6282 12.1427C31.7584 12.5281 30.824 12.7885 29.8417 12.9062C30.8552 12.2998 31.6135 11.3453 31.975 10.2208C31.0228 10.7864 29.9806 11.1846 28.8938 11.3979C28.1629 10.6175 27.1949 10.1003 26.14 9.92651C25.085 9.75271 24.0022 9.93205 23.0597 10.4367C22.1171 10.9413 21.3675 11.7431 20.9273 12.7174C20.487 13.6917 20.3808 14.7841 20.625 15.825C18.6955 15.7281 16.808 15.2266 15.0848 14.353C13.3617 13.4794 11.8415 12.2533 10.6229 10.7541C10.2063 11.4729 9.9667 12.3062 9.9667 13.1937C9.96623 13.9927 10.163 14.7794 10.5395 15.4841C10.916 16.1888 11.4606 16.7896 12.125 17.2333C11.3545 17.2088 10.6009 17.0006 9.92712 16.626V16.6885C9.92704 17.8091 10.3146 18.8952 11.0242 19.7625C11.7337 20.6298 12.7215 21.2249 13.8198 21.4469C13.105 21.6403 12.3556 21.6688 11.6282 21.5302C11.9381 22.4944 12.5417 23.3375 13.3546 23.9416C14.1675 24.5456 15.1489 24.8804 16.1615 24.8989C14.4426 26.2483 12.3197 26.9803 10.1344 26.9771C9.7473 26.9772 9.36053 26.9546 8.97607 26.9094C11.1943 28.3356 13.7764 29.0925 16.4136 29.0896C25.3407 29.0896 30.2209 21.6958 30.2209 15.2833C30.2209 15.075 30.2157 14.8646 30.2063 14.6562C31.1555 13.9697 31.9749 13.1197 32.6261 12.1458L32.6282 12.1427Z" fill="#FFF4EB"/>
</svg>
