<svg width="40" height="40" viewBox="0 0 40 40" fill="none" xmlns="http://www.w3.org/2000/svg">
<circle cx="20" cy="20" r="20" fill="#303030"/>
<g clip-path="url(#clip0_1_442)">
<path d="M32.4798 14.7782C32.3383 14.2733 32.0625 13.8161 31.6819 13.4553C31.2905 13.0835 30.8109 12.8174 30.2881 12.6824C28.3319 12.1668 20.4944 12.1668 20.4944 12.1668C17.227 12.1296 13.9605 12.2931 10.7131 12.6564C10.1904 12.8014 9.71165 13.0733 9.31939 13.448C8.93398 13.8189 8.65481 14.2762 8.50898 14.7772C8.15866 16.6644 7.98845 18.5807 8.00064 20.5001C7.98814 22.4178 8.15793 24.3335 8.50898 26.223C8.65168 26.722 8.92981 27.1772 9.31627 27.5449C9.70273 27.9126 10.184 28.1782 10.7131 28.3189C12.6954 28.8335 20.4944 28.8335 20.4944 28.8335C23.7659 28.8707 27.0366 28.7072 30.2881 28.3439C30.8109 28.2088 31.2905 27.9428 31.6819 27.571C32.0624 27.2102 32.3378 26.753 32.4788 26.248C32.8382 24.3615 33.013 22.4445 33.0006 20.5241C33.0277 18.5955 32.8531 16.6695 32.4798 14.7772V14.7782ZM18.0027 24.0668V16.9345L24.5236 20.5012L18.0027 24.0668Z" fill="#FFF4EB"/>
</g>
<defs>
<clipPath id="clip0_1_442">
<rect width="25" height="25" fill="white" transform="translate(8 8)"/>
</clipPath>
</defs>
</svg>
